<svg width="92" height="92" viewBox="0 0 92 92" fill="none" xmlns="http://www.w3.org/2000/svg">
<g clip-path="url(#clip0_1_84)">
<path d="M4.98644 64.0145L8.03831 70.2881C11.3521 75.9175 15.8798 80.7452 21.2636 84.4083H70.6623C76.2092 80.6343 80.849 75.6248 84.187 69.7749L87.0908 63.6165C88.9374 58.7559 89.9513 53.4848 89.9513 47.9759C89.9513 23.6622 70.257 3.95215 45.9629 3.95215C21.6688 3.95215 1.97461 23.6622 1.97461 47.9759C1.97461 53.6352 3.04271 59.0445 4.98644 64.0145Z" fill="#FFC839"/>
<path d="M67.3776 62.4845C68.5064 63.3619 69.8995 63.8382 71.3344 63.8382C72.7691 63.8382 74.1622 63.3617 75.2909 62.4845C76.1237 61.8372 77.0115 60.9568 77.79 59.8492C77.5657 59.7838 77.3393 59.7216 77.1095 59.6641C76.8698 59.6039 76.6591 59.4596 76.5231 59.2677C75.8962 58.3824 75.7224 57.0139 75.6884 56.0215C75.2486 56.5341 74.787 56.963 74.346 57.3057C72.5772 58.6805 70.0892 58.6787 68.3227 57.3057C67.8818 56.963 67.4201 56.5341 66.9803 56.0215C66.9453 57.036 66.7648 58.4437 66.1032 59.3261C65.9903 59.4767 65.8163 59.5998 65.6078 59.6515C65.3619 59.7124 65.1195 59.7795 64.8789 59.8497C65.6572 60.957 66.5449 61.8374 67.3776 62.4845Z" fill="#FCAD6D"/>
<path d="M68.3227 57.3057C67.8818 56.963 67.4202 56.5341 66.9803 56.0215C66.9453 57.036 66.7648 58.4437 66.1032 59.3261C65.9903 59.4767 65.8163 59.5998 65.6078 59.6515C65.3619 59.7124 65.1195 59.7795 64.8789 59.8497C65.6574 60.9571 66.5451 61.8376 67.3776 62.4847C67.8753 62.8715 68.4245 63.1801 69.0059 63.4047C70.5647 62.0974 71.1925 60.1173 71.411 58.3332C70.3214 58.3499 69.2274 58.009 68.3227 57.3057Z" fill="#FCAD6D"/>
<path d="M87.0914 63.6165C86.1851 62.8961 85.012 62.3957 83.4921 62.2714C82.9303 62.2254 82.6314 62.0072 81.9692 61.6336C80.5898 60.8551 79.1616 60.2342 77.6051 59.7976C76.8449 60.8912 75.9727 61.7573 75.156 62.3919C74.066 63.239 72.7208 63.6991 71.3355 63.6991C69.9501 63.6991 68.605 63.239 67.515 62.3919C66.6981 61.7569 65.8255 60.8906 65.0653 59.7969C63.5155 60.2324 62.0772 60.8572 60.7017 61.6336C60.0395 62.0074 59.7406 62.2255 59.1786 62.2714C54.4014 62.6622 53.0367 66.7598 52.6846 69.7751H84.1879C85.3077 67.8122 86.2793 65.7539 87.0914 63.6165Z" fill="#FF4155"/>
<path d="M67.4543 64.3309C68.1118 64.0655 68.6657 63.7121 69.1321 63.2966C68.5542 63.0785 68.0082 62.7754 67.515 62.3919C66.6981 61.7569 65.8255 60.8906 65.0653 59.7969C63.5155 60.2324 62.0772 60.8572 60.7017 61.6336C60.0395 62.0074 59.7406 62.2255 59.1786 62.2714C54.4014 62.6622 53.0367 66.7598 52.6846 69.7751H59.4417C59.5937 64.2853 62.2826 66.4182 67.4543 64.3309Z" fill="#E80054"/>
<path d="M16.7076 62.9487C17.8157 63.8098 19.1829 64.2777 20.5914 64.2777C21.9998 64.2777 23.3672 63.81 24.4751 62.9487C25.2994 62.3082 26.179 61.4351 26.9478 60.3348C26.7559 60.28 26.5627 60.227 26.3666 60.1778C26.1269 60.1178 25.9161 59.9733 25.7802 59.7814C25.1533 58.8961 24.9797 57.5276 24.9455 56.5352C24.5057 57.0478 24.0441 57.4767 23.6031 57.8194C21.8342 59.1942 19.3463 59.1924 17.5798 57.8194C17.1387 57.4767 16.6772 57.0478 16.2374 56.5352C16.2023 57.5497 16.0219 58.9573 15.3603 59.8398C15.2474 59.9904 15.0734 60.1135 14.8649 60.165C14.6525 60.2177 14.4426 60.2743 14.2344 60.3338C15.0032 61.4345 15.8831 62.308 16.7076 62.9487Z" fill="#FCAD6D"/>
<path d="M20.4909 58.8448C19.4603 58.8238 18.4355 58.4834 17.5798 57.8184C17.1387 57.4757 16.6772 57.0468 16.2374 56.5342C16.2023 57.5487 16.0219 58.9564 15.3603 59.8388C15.2474 59.9894 15.0734 60.1125 14.8649 60.1642C14.6525 60.2169 14.4426 60.2735 14.2344 60.333C15.0034 61.4335 15.8833 62.307 16.7078 62.9478C16.9634 63.1465 17.2333 63.3231 17.5139 63.4791C19.4828 61.9728 20.2446 60.26 20.4909 58.8448Z" fill="#FD995B"/>
<path d="M32.7481 62.785C32.1863 62.739 31.8874 62.5209 31.2251 62.1473C29.8456 61.3689 28.4174 60.7479 26.8609 60.3113C26.1007 61.4047 25.2285 62.2709 24.4118 62.9056C23.3218 63.7526 21.9766 64.2128 20.5913 64.2128C19.2059 64.2128 17.8608 63.7526 16.7708 62.9056C15.9539 62.2708 15.0813 61.4043 14.3211 60.3105C12.7713 60.7461 11.3332 61.3709 9.95751 62.1473C9.29535 62.5211 8.99641 62.7392 8.43445 62.785C6.99739 62.9025 5.87111 63.3571 4.98633 64.0152C5.83952 66.1969 6.86327 68.2928 8.0382 70.2888H39.242C38.8901 67.2734 37.5254 63.176 32.7481 62.785Z" fill="#73C3F9"/>
<path d="M9.65193 70.2888C9.76001 65.6313 10.7511 67.4555 16.2241 64.3316C16.7286 64.0436 17.1755 63.7428 17.5734 63.4337C17.294 63.2792 17.0252 63.1034 16.7708 62.9058C15.9539 62.2709 15.0813 61.4045 14.3211 60.3105C12.7713 60.7463 11.3332 61.3711 9.95751 62.1473C9.29535 62.5211 8.99642 62.7392 8.43445 62.785C6.99739 62.9025 5.87111 63.3571 4.98633 64.015C5.83952 66.1968 6.86327 68.2926 8.0382 70.2888H9.65193Z" fill="#4FABF7"/>
<path d="M39.4838 83.2396C41.3322 84.6762 43.6133 85.4564 45.9627 85.4564C48.3118 85.4564 50.5929 84.6762 52.4413 83.2396C53.7997 82.1838 55.2477 80.7483 56.519 78.944C56.1334 78.8305 55.7438 78.7223 55.3479 78.6229C54.9583 78.5252 54.6159 78.2907 54.3949 77.9787C53.376 76.54 53.0937 74.316 53.0383 72.7031C52.3235 73.5363 51.5734 74.2332 50.8566 74.7902C47.9821 77.0242 43.9387 77.0214 41.068 74.7902C40.3512 74.2332 39.6011 73.5363 38.8863 72.7031C38.8296 74.3518 38.5364 76.6394 37.4611 78.0736C37.2776 78.3184 36.995 78.5183 36.656 78.6024C36.2338 78.707 35.8183 78.8229 35.4062 78.9446C36.6778 80.7484 38.1256 82.184 39.4838 83.2396Z" fill="#FCAD6D"/>
<path d="M45.6176 76.4568C44.0046 76.3873 42.409 75.8317 41.0689 74.7902C40.3522 74.2332 39.6021 73.5363 38.8873 72.7031C38.8306 74.3518 38.5374 76.6394 37.4621 78.0736C37.2786 78.3184 36.996 78.5184 36.657 78.6024C36.2347 78.707 35.8193 78.8229 35.4072 78.9446C36.6786 80.7484 38.1264 82.184 39.4846 83.2396C40.1626 83.7665 40.8991 84.2042 41.6754 84.5483C44.0016 82.2312 45.1076 79.1579 45.6176 76.4568Z" fill="#FD995B"/>
<path d="M63.244 81.8237C61.0024 80.5585 58.6811 79.5495 56.1519 78.8399C54.9166 80.6171 53.499 82.0245 52.1718 83.0561C50.4004 84.4329 48.2143 85.1806 45.963 85.1806C43.7115 85.1806 41.5256 84.4329 39.7542 83.0561C38.4267 82.0244 37.0087 80.6163 35.7732 78.8389C33.2546 79.5468 30.9173 80.5621 28.6818 81.8237C27.6057 82.431 27.1198 82.7855 26.2068 82.8601C24.2155 83.0231 22.5912 83.5842 21.2637 84.4085C28.3048 89.1991 36.8067 91.9999 45.9628 91.9999C55.119 91.9999 63.6209 89.1991 70.6622 84.4085C69.3348 83.5842 67.7105 83.0231 65.719 82.8601C64.8058 82.7855 64.3202 82.431 63.244 81.8237Z" fill="#3C58A0"/>
<path d="M39.7542 83.0561C38.4267 82.0244 37.0087 80.6163 35.7732 78.8389C33.2546 79.5468 30.9173 80.5621 28.6818 81.8237C27.6057 82.431 27.1198 82.7855 26.2068 82.8601C24.2155 83.0231 22.5912 83.5842 21.2637 84.4085C24.6306 86.6991 28.3323 88.5335 32.279 89.8257C33.3695 89.2458 35.4136 88.5632 39.2422 86.3963C40.2722 85.8134 41.1468 85.1098 41.8912 84.3278C41.1333 83.9954 40.415 83.5695 39.7542 83.0561Z" fill="#2A428C"/>
<path d="M44.8415 9.99979C44.8415 7.6847 46.734 5.79061 49.0472 5.79061H69.0718V4.20918C69.0718 1.89409 67.1791 0 64.8659 0H43.1218C40.8086 0 38.916 1.89409 38.916 4.20918V21.4881C38.916 23.8032 40.8086 25.6973 43.1218 25.6973H44.8413V9.99979H44.8415Z" fill="#4FABF7"/>
<path d="M55.1226 0H43.1218C40.8086 0 38.916 1.89409 38.916 4.20918V21.4881C38.916 23.8032 40.8086 25.6973 43.1218 25.6973H44.8413V9.99979C44.8413 7.6847 46.7338 5.79061 49.0471 5.79061H55.0334C55.0865 5.61721 55.1226 5.52198 55.1226 5.52198C52.1388 2.53575 55.1226 0 55.1226 0V0Z" fill="#1886EA"/>
<path d="M70.5233 5.52148H48.779C46.4658 5.52148 44.5732 7.41557 44.5732 9.73066V27.0096C44.5732 29.3247 46.4658 31.2188 48.779 31.2188C49.3703 31.2188 49.6979 31.8983 49.3363 32.3664C48.951 32.8652 48.5192 33.3303 48.0399 33.7529C47.1454 34.5414 47.6486 36.158 48.7828 36.1544C51.6655 36.1454 54.3673 34.681 56.206 32.2956C56.7227 31.6252 57.5093 31.2186 58.3553 31.2186H70.5229C72.8361 31.2186 74.7287 29.3245 74.7287 27.0094V9.73066C74.7291 7.41557 72.8365 5.52148 70.5233 5.52148Z" fill="#E9EFFF"/>
<path d="M48.779 5.52166C46.4658 5.52166 44.5732 7.41575 44.5732 9.73084V27.0098C44.5732 29.3249 46.4658 31.219 48.779 31.219C49.3703 31.219 49.6979 31.8985 49.3363 32.3666C48.951 32.8654 48.5192 33.3305 48.0399 33.7531C47.1454 34.5416 47.6486 36.1582 48.7828 36.1546C51.6655 36.1456 54.3673 34.6812 56.206 32.2958C56.7227 31.6254 57.5093 31.2188 58.3553 31.2188H63.7881C57.2527 27.3974 60.1245 20.6638 60.1245 20.6638L59.2704 16.8078C52.3756 12.7624 55.1226 5.52148 55.1226 5.52148H48.779V5.52166Z" fill="#BEC8F7"/>
<path d="M52.8318 20.7816C53.9179 20.5246 54.5902 19.4352 54.3335 18.3482C54.0767 17.2612 52.9882 16.5884 51.9021 16.8453C50.816 17.1023 50.1437 18.1917 50.4004 19.2787C50.6571 20.3656 51.7457 21.0385 52.8318 20.7816Z" fill="#1886EA"/>
<path d="M59.7254 20.7796C60.8114 20.5227 61.4838 19.4332 61.227 18.3463C60.9703 17.2593 59.8817 16.5864 58.7956 16.8434C57.7095 17.1003 57.0372 18.1898 57.294 19.2767C57.5507 20.3637 58.6393 21.0366 59.7254 20.7796Z" fill="#1886EA"/>
<path d="M67.5856 20.267C68.3748 19.4772 68.3748 18.1966 67.5856 17.4068C66.7964 16.617 65.5169 16.617 64.7278 17.4068C63.9386 18.1966 63.9386 19.4772 64.7278 20.267C65.5169 21.0568 66.7964 21.0568 67.5856 20.267Z" fill="#4FABF7"/>
<path d="M43.5972 39.1975C36.4909 40.1665 35.8155 44.1989 35.8123 45.6783C35.8115 45.9886 35.6399 46.2761 35.3611 46.4117C31.6646 48.2115 33.6576 56.885 33.6576 56.885C34.0289 56.9098 34.5856 57.2286 34.8754 57.3691C34.9463 56.9271 35.0621 56.492 35.2259 56.0714C35.3505 55.7508 35.5063 55.427 35.7011 55.1212C36.0392 54.5904 36.1931 53.9644 36.1471 53.3383C36.0142 51.5289 35.9101 48.1317 38.2966 47.057C40.3184 46.1465 42.7986 46.6737 44.3802 47.2C45.4074 47.5418 46.52 47.5418 47.5472 47.2C49.1288 46.6737 51.6088 46.1465 53.6308 47.057C56.0106 48.1287 55.9128 51.5086 55.7815 53.3229C55.7359 53.9536 55.8857 54.5863 56.2263 55.1212C56.4273 55.4369 56.587 55.7719 56.7135 56.1023C56.871 56.5132 56.9829 56.9378 57.0522 57.3691C57.4175 57.1919 58.1077 56.8307 58.5544 56.8938C58.6092 54.9972 58.784 52.9527 58.784 52.9527C60.8899 42.6302 51.2488 38.154 43.5972 39.1975Z" fill="#2A428C"/>
<path d="M43.5972 39.1979C36.4909 40.1669 35.8155 44.1993 35.8123 45.6787C35.8115 45.989 35.6399 46.2765 35.3611 46.4121C31.6646 48.2119 33.6576 56.8854 33.6576 56.8854C34.0289 56.9102 34.5856 57.229 34.8754 57.3695C34.9463 56.9275 35.0621 56.4924 35.2259 56.0718C35.3505 55.7512 35.5063 55.4274 35.7011 55.1216C36.0392 54.5908 36.1931 53.9648 36.1471 53.3387C36.0142 51.5293 35.9101 48.1321 38.2966 47.0574C40.3184 46.1469 42.7986 46.6741 44.3802 47.2004C44.8129 47.3444 45.2609 47.424 45.711 47.4468C45.642 47.3284 45.5684 47.2107 45.486 47.0948C42.4374 42.8063 46.6751 39.6814 47.4929 39.1353C46.1814 39.0047 44.8621 39.0254 43.5972 39.1979Z" fill="#1C2E7A"/>
<path d="M59.1841 57.1402C58.6306 56.6326 57.5282 56.8899 57.0513 57.2007C57.1558 57.8516 57.1618 58.5175 57.0714 59.175L56.5089 63.2753C56.5089 63.6057 56.4985 63.93 56.4795 64.2488C57.8512 64.6628 58.5326 63.4305 58.6473 62.5847C58.6967 62.2207 58.7775 61.8618 58.8895 61.5116C59.2545 60.371 60.5709 58.412 59.1841 57.1402Z" fill="#FCAD6D"/>
<path d="M32.7422 57.1402C33.2958 56.6326 34.3981 56.8899 34.8748 57.2007C34.7703 57.8516 34.7644 58.5175 34.8547 59.175L35.4172 63.2753C35.4172 63.6057 35.4276 63.93 35.4468 64.2488C34.0751 64.6628 33.3938 63.4305 33.2789 62.5847C33.2295 62.2207 33.1487 61.8618 33.0367 61.5116C32.6718 60.371 31.3554 58.412 32.7422 57.1402Z" fill="#FD995B"/>
<path d="M56.8811 55.9339C56.7545 55.6032 56.5949 55.2685 56.3938 54.9528C56.0533 54.4178 55.9033 53.7853 55.9491 53.1545C56.0804 51.3402 56.01 47.7919 53.6303 46.7202C51.6085 45.8097 49.1286 46.3369 47.5471 46.8633C46.5199 47.205 45.4067 47.205 44.3796 46.8633C42.798 46.3369 40.3179 45.8097 38.2963 46.7202C35.9098 47.7949 35.8457 51.3605 35.9786 53.1699C36.0245 53.796 35.8707 54.422 35.5326 54.9528C35.3378 55.2586 35.1819 55.5824 35.0573 55.903C34.653 56.9426 34.535 58.07 34.6866 59.174L35.2493 63.2754C35.2493 69.1716 38.3941 73.1792 41.0693 75.2582C42.4656 76.3433 44.1889 76.9329 45.9635 76.9329C47.7383 76.9329 49.4613 76.3435 50.8576 75.2582C53.5328 73.1792 56.6777 69.1714 56.6777 63.2754L57.2402 59.1751C57.3898 58.0819 57.2761 56.9653 56.8811 55.9339Z" fill="#F9BA8F"/>
<path d="M48.8821 75.2582C46.207 73.1792 43.0621 69.1714 43.0621 63.2754L42.4994 59.174C42.3479 58.07 42.4658 56.9426 42.8701 55.903C42.9947 55.5824 43.1506 55.2588 43.3454 54.9528C43.6835 54.422 43.8373 53.7958 43.7914 53.1699C43.6713 51.5339 43.7126 48.4625 45.4855 47.0943C45.1114 47.0586 44.7401 46.9833 44.3796 46.8633C42.798 46.3369 40.3179 45.8097 38.2963 46.7202C35.9098 47.7949 35.8457 51.3605 35.9786 53.1699C36.0245 53.796 35.8707 54.422 35.5326 54.9528C35.3378 55.2586 35.1819 55.5824 35.0573 55.903C34.653 56.9426 34.535 58.07 34.6866 59.174L35.2493 63.2754C35.2493 69.1716 38.3941 73.1792 41.0693 75.2582C42.4656 76.3433 44.1889 76.9329 45.9635 76.9329C47.3397 76.9329 48.6841 76.5769 49.87 75.9117C49.5263 75.7191 49.1956 75.5018 48.8821 75.2582Z" fill="#FCAD6D"/>
<path d="M69.8782 35.4043C65.5053 36.0007 65.0896 38.482 65.0876 39.3923C65.0873 39.5833 64.9815 39.7601 64.8101 39.8437C62.5354 40.9511 63.7617 46.2885 63.7617 46.2885C63.9901 46.3038 64.3328 46.5 64.5111 46.5865C64.5548 46.3144 64.626 46.0467 64.7268 45.7879C64.8034 45.5906 64.8993 45.3915 65.0192 45.2032C65.2273 44.8765 65.3219 44.4913 65.2938 44.106C65.2121 42.9925 65.1478 40.902 66.6165 40.2408C67.8607 39.6805 69.3868 40.0049 70.3601 40.3288C70.9921 40.5393 71.6769 40.5393 72.3088 40.3288C73.2822 40.0049 74.8083 39.6805 76.0525 40.2408C77.5168 40.9002 77.4567 42.9801 77.3759 44.0965C77.3477 44.4847 77.44 44.8739 77.6495 45.203C77.7732 45.3973 77.8714 45.6034 77.9494 45.8068C78.0461 46.0598 78.1151 46.3211 78.1576 46.5863C78.3824 46.4772 78.8072 46.2549 79.0821 46.2939C79.1157 45.1269 79.2234 43.8687 79.2234 43.8687C80.5195 37.5167 74.5867 34.7623 69.8782 35.4043Z" fill="#2A428C"/>
<path d="M69.8782 35.405C65.5053 36.0014 65.0896 38.4827 65.0876 39.393C65.0873 39.584 64.9815 39.7608 64.8101 39.8443C62.5354 40.9517 63.7617 46.2892 63.7617 46.2892C63.9901 46.3045 64.3328 46.5007 64.5111 46.5871C64.5548 46.3151 64.626 46.0473 64.7268 45.7886C64.8034 45.5913 64.8993 45.392 65.0192 45.2039C65.2273 44.8772 65.3219 44.4919 65.2938 44.1067C65.2121 42.9932 65.1478 40.9027 66.6164 40.2414C67.8607 39.6812 69.3868 40.0055 70.3601 40.3295C70.6263 40.4181 70.9019 40.4671 71.179 40.4811C71.1364 40.4082 71.0912 40.336 71.0406 40.2646C69.1645 37.6257 71.7722 35.7027 72.2756 35.3667C71.4684 35.286 70.6565 35.2988 69.8782 35.405Z" fill="#1C2E7A"/>
<path d="M79.47 46.4455C79.1294 46.1332 78.4509 46.2915 78.1576 46.4827C78.2218 46.8832 78.2254 47.2929 78.17 47.6976L77.8238 50.2208C77.8238 50.4242 77.8173 50.6236 77.8057 50.8198C78.6497 51.0746 79.0691 50.3162 79.1397 49.7958C79.17 49.5717 79.2197 49.3509 79.2887 49.1354C79.5135 48.4336 80.3234 47.2281 79.47 46.4455Z" fill="#FCAD6D"/>
<path d="M63.1986 46.4455C63.5392 46.1332 64.2177 46.2915 64.511 46.4827C64.4468 46.8832 64.4432 47.2929 64.4987 47.6976L64.8448 50.2208C64.8448 50.4242 64.8513 50.6236 64.863 50.8198C64.0189 51.0746 63.5995 50.3162 63.529 49.7958C63.4986 49.5717 63.4489 49.3509 63.3799 49.1354C63.1553 48.4336 62.3452 47.2281 63.1986 46.4455Z" fill="#FD995B"/>
<path d="M78.0525 45.7036C77.9746 45.5002 77.8764 45.2941 77.7527 45.0998C77.5432 44.7706 77.4509 44.3814 77.4791 43.9933C77.5599 42.8769 77.5166 40.6933 76.0521 40.0339C74.808 39.4736 73.2819 39.798 72.3086 40.1219C71.6766 40.3323 70.9917 40.3323 70.3595 40.1219C69.3862 39.7981 67.8601 39.4736 66.616 40.0339C65.1474 40.6951 65.108 42.8893 65.1897 44.0028C65.2181 44.3881 65.1233 44.7733 64.9152 45.1C64.7953 45.2883 64.6994 45.4874 64.6227 45.6847C64.3739 46.3244 64.3014 47.0182 64.3945 47.6976L64.7407 50.2213C64.7407 53.8495 66.676 56.3157 68.322 57.5951C69.1813 58.2628 70.2417 58.6256 71.3337 58.6256C72.4258 58.6256 73.4862 58.2628 74.3453 57.5951C75.9916 56.3157 77.9267 53.8495 77.9267 50.2213L78.2728 47.6981C78.3657 47.0252 78.2956 46.3382 78.0525 45.7036Z" fill="#F9BA8F"/>
<path d="M73.1308 57.5953C71.4846 56.3159 69.5495 53.8497 69.5495 50.2215L69.2033 47.6977C69.1101 47.0183 69.1827 46.3246 69.4315 45.6849C69.5082 45.4876 69.604 45.2885 69.724 45.1002C69.9321 44.7735 70.0267 44.3883 69.9985 44.003C69.9245 42.9962 69.95 41.1061 71.0411 40.2642C70.8108 40.2423 70.5824 40.1958 70.3605 40.1219C69.3872 39.798 67.861 39.4736 66.617 40.0339C65.1483 40.6951 65.109 42.8893 65.1907 44.0028C65.2191 44.3881 65.1243 44.7733 64.9162 45.1C64.7962 45.2883 64.7004 45.4874 64.6237 45.6847C64.3749 46.3244 64.3023 47.0182 64.3955 47.6976L64.7417 50.2213C64.7417 53.8495 66.677 56.3157 68.323 57.5951C69.1823 58.2628 70.2427 58.6256 71.3347 58.6256C72.1816 58.6256 73.0089 58.4066 73.7386 57.9973C73.5274 57.8788 73.3238 57.7452 73.1308 57.5953Z" fill="#FCAD6D"/>
<path d="M19.135 35.917C14.7621 36.5134 14.3465 38.9947 14.3445 39.905C14.3441 40.096 14.2384 40.2728 14.0669 40.3564C11.7923 41.4638 13.0186 46.8012 13.0186 46.8012C13.2469 46.8165 13.5895 47.0127 13.768 47.0992C13.8116 46.8271 13.8829 46.5594 13.9836 46.3006C14.0603 46.1033 14.1561 45.9042 14.2761 45.7159C14.4842 45.3893 14.5788 45.004 14.5506 44.6188C14.4689 43.5052 14.4046 41.4147 15.8733 40.7535C17.1173 40.1932 18.6436 40.5176 19.6169 40.8415C20.2489 41.052 20.9337 41.052 21.5657 40.8415C22.539 40.5176 24.0651 40.1932 25.3093 40.7535C26.7737 41.4129 26.7135 43.4928 26.6327 44.6092C26.6046 44.9974 26.6968 45.3867 26.9064 45.7157C27.0301 45.91 27.1283 46.1161 27.2062 46.3195C27.303 46.5725 27.3719 46.8338 27.4145 47.099C27.6393 46.9899 28.0641 46.7676 28.3389 46.8066C28.3727 45.6396 28.4802 44.3814 28.4802 44.3814C29.7762 38.0294 23.8434 35.275 19.135 35.917Z" fill="#2A428C"/>
<path d="M19.135 35.9176C14.7621 36.514 14.3465 38.9953 14.3445 39.9056C14.3441 40.0966 14.2384 40.2734 14.0669 40.357C11.7923 41.4644 13.0186 46.8018 13.0186 46.8018C13.2469 46.8171 13.5895 47.0133 13.768 47.0998C13.8116 46.8277 13.8829 46.56 13.9836 46.3012C14.0603 46.1039 14.1561 45.9048 14.2761 45.7165C14.4842 45.3898 14.5788 45.0046 14.5506 44.6193C14.4689 43.5058 14.4046 41.4153 15.8733 40.7541C17.1173 40.1938 18.6436 40.5182 19.6169 40.8421C19.8832 40.9307 20.1588 40.9798 20.4358 40.9936C20.3933 40.9207 20.348 40.8484 20.2974 40.7771C18.4214 38.1382 21.029 36.2152 21.5325 35.8792C20.7251 35.7989 19.9134 35.8114 19.135 35.9176Z" fill="#1C2E7A"/>
<path d="M28.7267 46.9582C28.3861 46.6459 27.7076 46.8042 27.4144 46.9954C27.4787 47.3959 27.4823 47.8056 27.4268 48.2103L27.0806 50.7335C27.0806 50.9369 27.0742 51.1363 27.0625 51.3325C27.9065 51.5873 28.3259 50.8291 28.3965 50.3085C28.4268 50.0844 28.4766 49.8636 28.5455 49.6481C28.7699 48.9463 29.58 47.7409 28.7267 46.9582Z" fill="#FCAD6D"/>
<path d="M12.4555 46.9582C12.7961 46.6459 13.4746 46.8042 13.7679 46.9954C13.7037 47.3959 13.7001 47.8056 13.7556 48.2103L14.1017 50.7335C14.1017 50.9369 14.1082 51.1363 14.1198 51.3325C13.2758 51.5873 12.8564 50.8291 12.7858 50.3085C12.7555 50.0844 12.7058 49.8636 12.6368 49.6481C12.412 48.9463 11.6021 47.7409 12.4555 46.9582Z" fill="#FD995B"/>
<path d="M27.3096 46.2163C27.2316 46.0129 27.1334 45.8068 27.0097 45.6125C26.8 45.2833 26.7079 44.8941 26.7359 44.506C26.8167 43.3896 26.7734 41.206 25.3089 40.5466C24.0649 39.9863 22.5387 40.3107 21.5654 40.6346C20.9334 40.845 20.2483 40.845 19.6163 40.6346C18.643 40.3107 17.1171 39.9863 15.8729 40.5466C14.4044 41.2078 14.3649 43.402 14.4466 44.5155C14.4749 44.9008 14.3801 45.286 14.172 45.6127C14.0521 45.801 13.9562 46.0001 13.8796 46.1974C13.6307 46.8371 13.5582 47.5309 13.6514 48.2103L13.9975 50.734C13.9975 54.3622 15.9328 56.8284 17.5789 58.1078C18.4382 58.7755 19.4985 59.1383 20.5905 59.1383C21.6827 59.1383 22.7431 58.7755 23.6022 58.1078C25.2484 56.8284 27.1835 54.3624 27.1835 50.734L27.5297 48.2108C27.6225 47.538 27.5525 46.8509 27.3096 46.2163Z" fill="#F9BA8F"/>
<path d="M22.3876 58.1068C20.7414 56.8274 18.8063 54.3614 18.8063 50.7329L18.4601 48.2092C18.367 47.5298 18.4395 46.8361 18.6883 46.1964C18.765 45.9993 18.8609 45.8 18.9808 45.6117C19.1889 45.285 19.2835 44.8997 19.2553 44.5145C19.1814 43.5077 19.2069 41.6177 20.2979 40.7759C20.0676 40.7538 19.8392 40.7075 19.6173 40.6336C18.644 40.3098 17.1181 39.9853 15.8738 40.5456C14.4053 41.2068 14.3658 43.401 14.4475 44.5145C14.4759 44.8997 14.3811 45.285 14.173 45.6117C14.0531 45.8 13.9572 45.9991 13.8805 46.1964C13.6317 46.8361 13.5592 47.5298 13.6523 48.2092L13.9985 50.7329C13.9985 54.3612 15.9338 56.8274 17.5798 58.1068C18.4391 58.7745 19.4995 59.1373 20.5915 59.1373C21.4384 59.1373 22.2657 58.9182 22.9954 58.5089C22.7841 58.3905 22.5805 58.2568 22.3876 58.1068Z" fill="#FCAD6D"/>
</g>
<defs>
<clipPath id="clip0_1_84">
<rect width="91.9259" height="92" fill="white"/>
</clipPath>
</defs>
</svg>
